<svg width="120" height="120" viewBox="0 0 120 120" fill="none" xmlns="http://www.w3.org/2000/svg">
<path d="M110.255 60.4131C110.255 32.4413 87.7833 10.1711 59.6773 10.1711C31.5042 10.1711 9.16699 32.4413 9.16699 60.4802C9.16699 88.5191 31.4371 110.722 59.6102 110.789C87.9175 110.923 110.255 88.6533 110.255 60.4131Z" fill="#DAF3FF"/>
<path d="M116.162 60.4804C116.095 91.6721 90.6719 117.028 59.5474 116.894C28.2887 116.827 3 91.4708 3 60.3463C3 29.5571 28.557 4.13429 59.4803 4.00013C90.6049 3.93305 116.229 29.4901 116.162 60.4804ZM59.5474 110.857C87.3851 110.924 110.125 88.5194 110.259 60.8158C110.393 33.1794 87.7876 10.3055 60.1511 10.2385C31.911 10.1043 9.17124 32.5757 9.17124 60.6146C9.10417 88.3181 31.6426 110.79 59.5474 110.857Z" fill="#0074AD"/>
<path d="M50.0204 76.8479C55.9234 75.238 62.0946 75.171 67.9975 76.8479C70.2782 77.4516 72.4918 78.1224 74.7054 78.7932C76.5836 79.3969 77.9252 80.8056 76.9861 82.885C76.047 84.9645 74.3029 85.0986 72.2235 84.1595C63.5703 80.269 54.783 80.2019 46.0628 84.1595C44.2517 84.9645 42.5076 85.2999 41.5014 83.2204C40.3611 80.9397 41.5685 79.3299 43.7821 78.6591C45.7944 78.0554 47.8739 77.4516 50.0204 76.8479Z" fill="#0074AD"/>
<path d="M44.4531 41.7653C48.0083 41.8324 50.9598 44.9851 50.7585 48.5402C50.6244 52.0954 47.8071 54.7115 44.2519 54.7115C40.6967 54.7115 37.7452 51.5588 37.8794 48.0036C38.0806 44.6497 41.1663 41.6982 44.4531 41.7653Z" fill="#0074AD"/>
<path d="M68.6017 48.3394C68.5346 44.9184 71.4861 41.7657 74.773 41.6986C78.3281 41.6315 81.4808 44.7171 81.4138 48.2723C81.3467 51.7604 78.5294 54.5777 75.0413 54.7119C71.6873 54.7789 68.6017 51.8275 68.6017 48.3394Z" fill="#0074AD"/>
</svg>
