<svg width="120" height="120" viewBox="0 0 120 120" fill="none" xmlns="http://www.w3.org/2000/svg">
<path d="M110.442 60.3071C110.442 32.2879 87.9321 9.97998 59.7785 9.97998C31.5577 9.97998 9.18262 32.2879 9.18262 60.3743C9.18262 88.4607 31.4905 110.701 59.7113 110.769C88.0665 110.903 110.509 88.5951 110.442 60.3071Z" fill="#DAF3FF"/>
<path d="M59.6433 116.95C29.5411 116.682 2.93293 93.5003 3.00013 60.3073C3.06732 28.1893 28.5333 4.06719 59.6433 4C91.6941 4 116.287 28.8612 116.488 60.4417C116.69 91.7533 90.8878 116.95 59.6433 116.95ZM9.18183 60.5088C9.24902 88.5281 31.6241 110.836 59.6433 110.836C87.797 110.836 110.239 88.5281 110.306 60.6432C110.306 32.5568 87.797 10.0473 59.5762 10.1145C31.6913 10.0473 9.11464 32.624 9.18183 60.5088Z" fill="#0074AD"/>
<path d="M77.7197 81.8091C76.779 82.8842 76.1071 84.3624 75.3008 84.4296C74.0913 84.564 72.4115 83.9593 71.6052 83.0858C68.1784 79.3902 64.0796 77.24 58.973 77.3072C54.2695 77.3744 50.238 79.1214 47.2815 82.7498C45.8033 84.564 44.1235 85.5047 42.1749 83.8921C40.0919 82.1451 41.2342 80.3309 42.7124 78.7183C51.4474 68.9082 66.4985 68.7066 75.3679 78.2479C76.1743 79.1886 76.779 80.3981 77.7197 81.8091Z" fill="#0074AD"/>
<path d="M74.761 54.5958C71.4014 54.5286 68.5121 51.4378 68.5793 48.011C68.6465 44.6513 71.6701 41.6277 74.9626 41.6277C78.4566 41.6277 81.6146 44.7857 81.5474 48.2125C81.4802 51.7737 78.3894 54.663 74.761 54.5958Z" fill="#0074AD"/>
<path d="M44.2571 54.5957C40.8975 54.5285 37.8738 51.3705 38.0082 48.0108C38.1426 44.584 41.2335 41.5604 44.5259 41.6276C47.9527 41.6948 50.9092 44.7184 50.9092 48.078C50.9764 51.6392 47.8855 54.6629 44.2571 54.5957Z" fill="#0074AD"/>
</svg>
