<svg width="120" height="120" viewBox="0 0 120 120" fill="none" xmlns="http://www.w3.org/2000/svg">
<path d="M110.558 59.8789C110.558 32.073 88.2201 9.93506 60.2808 9.93506C32.275 9.93506 10.0703 32.073 10.0703 59.9456C10.0703 87.8181 32.2083 109.889 60.2141 109.956C88.3534 110.089 110.558 87.9514 110.558 59.8789Z" fill="#DAF3FF"/>
<path d="M60.2831 116.091C29.2766 116.091 3.60453 90.7521 4.00461 59.879C4.4047 28.2723 29.0099 3.86718 60.5498 4.00054C91.7564 4.13391 116.895 28.4724 116.695 60.279C116.428 93.0859 90.0894 115.891 60.2831 116.091ZM110.494 60.3457C110.627 32.6066 88.5557 10.2685 60.6832 10.0018C32.944 9.73508 10.2726 31.9397 10.0726 59.5455C9.87254 87.4848 32.0105 109.823 60.0831 109.956C87.8889 110.156 110.36 88.0182 110.494 60.3457Z" fill="#0074AD"/>
<path d="M59.8831 91.6197C52.9483 91.553 47.0804 88.9525 42.8795 83.418C42.146 82.4844 42.0794 80.0839 42.8128 79.1504C44.1465 77.35 46.0135 78.0835 47.2805 79.6839C53.6151 87.8856 66.4845 87.3521 72.219 79.6839C73.4193 78.0835 75.153 77.5501 76.82 79.1504C78.5537 80.7507 77.7535 82.2844 76.4866 83.8181C72.1523 88.8858 66.6178 91.4863 59.8831 91.6197Z" fill="#0074AD"/>
<path d="M51.5454 47.81C51.5454 51.2107 48.5448 54.1446 45.2107 54.1446C41.61 54.1446 38.6094 51.144 38.6094 47.6766C38.6761 44.2092 41.81 41.2086 45.2774 41.2753C48.6782 41.4086 51.5454 44.4759 51.5454 47.81Z" fill="#0074AD"/>
<path d="M81.8183 47.9431C81.8183 51.2104 78.6176 54.2777 75.3503 54.211C71.8162 54.0777 69.0156 51.2104 69.0156 47.8097C69.0156 44.2756 72.1496 41.275 75.6837 41.3417C78.951 41.4083 81.885 44.5423 81.8183 47.9431Z" fill="#0074AD"/>
</svg>
