<svg width="120" height="120" viewBox="0 0 120 120" fill="none" xmlns="http://www.w3.org/2000/svg">
<path d="M60.5 1C27.6422 1 1 27.6422 1 60.5C1 93.3578 27.6422 120 60.5 120C93.3578 120 120 93.3578 120 60.5C120 27.6422 93.3578 1 60.5 1ZM83.9414 78.7883L80.143 83.968C80.0604 84.0808 79.9563 84.1761 79.8367 84.2485C79.7171 84.321 79.5844 84.3691 79.4461 84.39C79.3079 84.411 79.1669 84.4045 79.0312 84.3708C78.8955 84.3371 78.7678 84.2769 78.6555 84.1938L56.6883 68.1766C56.5514 68.0783 56.4402 67.9486 56.3639 67.7983C56.2876 67.6481 56.2486 67.4818 56.25 67.3133V30.75C56.25 30.1656 56.7281 29.6875 57.3125 29.6875H63.7008C64.2852 29.6875 64.7633 30.1656 64.7633 30.75V63.6211L83.7023 77.3141C84.1805 77.6461 84.2867 78.3102 83.9414 78.7883Z" fill="#0074AD"/>
</svg>
