<svg width="150" height="150" viewBox="0 0 150 150" fill="none" xmlns="http://www.w3.org/2000/svg">
<path d="M64.6 35.5001C66.8 37.6001 68.8 39.7001 70.8 41.7001C73.6 44.4001 76.4 44.4001 79.2 41.7001C81.2 39.7001 83.1 37.8001 85.1 35.8001C85.2 35.7001 85.3 35.7001 85.5 35.6001C87.7 37.8001 89.9 40.0001 92.2 42.2001C93.7 43.6001 95.4 44.2001 97.4 43.5001C99.4 42.9001 100.6 41.5001 101 39.5001C101.1 38.8001 101.1 38.1001 101.1 37.4001C101.1 26.3001 101.1 15.1001 101.1 4.00011C101.1 3.40011 101.1 2.80011 101.1 2.20011C101.5 2.20011 101.8 2.10011 102 2.10011C110.6 2.10011 119.2 2.00011 127.7 2.10011C138.6 2.20011 147.8 11.3001 147.9 22.2001C148 39.4001 147.9 56.6001 147.9 73.8001C147.9 74.0001 147.9 74.3001 147.8 74.8001C136.3 60.7001 121.7 53.6001 103.8 54.3001C89.5 54.9001 77.4 60.6001 67.8 71.2001C47.6 93.2001 49.7 128.7 74.7 148C74.1 148 73.6 148.1 73.2 148.1C56.5 148.1 39.7 148.1 23 148.1C11.2 148.1 2 138.9 2 127.1C2 92.3001 2 57.7001 2 23.1001C2 11.3001 11.2 2.10011 23 2.10011C31.5 2.10011 39.9 2.10011 48.4 2.10011C48.5 2.10011 48.6 2.10011 48.9 2.20011C48.9 2.70011 48.9 3.30011 48.9 3.90011C48.9 15.4001 48.9 26.8001 48.9 38.3001C48.9 42.5001 52.9 45.1001 56.4 43.2001C57.1 42.8001 57.7 42.3001 58.3 41.7001C60.4 39.7001 62.5 37.6001 64.6 35.5001Z" fill="#E4E4E4"/>
<path d="M64.5996 106.3C64.5996 83.3001 83.2996 64.6001 106.2 64.6001C129.4 64.6001 148 83.3001 148 106.4C148 129.2 129.3 148 106.4 148C83.2996 148 64.5996 129.4 64.5996 106.3ZM101 109.3C98.6996 107 96.4996 104.8 94.2996 102.6C92.1996 100.5 88.9996 100.6 86.9996 102.6C84.9996 104.6 84.7996 107.8 86.8996 109.9C90.3996 113.5 93.8996 117 97.4996 120.5C99.5996 122.5 102.6 122.6 104.7 120.5C111.8 113.5 118.8 106.5 125.8 99.4001C127.2 98.0001 127.6 96.3001 127.1 94.4001C126 90.4001 121.3 89.3001 118.2 92.3001C112.4 97.9001 106.8 103.5 101 109.3Z" fill="#E4E4E4"/>
<path d="M90.6 2.1C90.6 10 90.6 17.7 90.6 25.7C90.1 25.3 89.8 25 89.4 24.6C86.9 22.1 83.9 22.1 81.4 24.7C79.3 26.8 77.2 28.9 75 31C73 29 71 27.1 69.1 25.1C65.9 22 63.3 21.9 60.1 25.1C59.9 25.2 59.8 25.4 59.5 25.6C59.5 17.7 59.5 9.9 59.5 2C69.8 2.1 80.1 2.1 90.6 2.1Z" fill="#E4E4E4"/>
</svg>
