<svg width="150" height="150" viewBox="0 0 150 150" fill="none" xmlns="http://www.w3.org/2000/svg">
<path d="M37.4004 129.6C36.3004 129.4 35.1004 129.3 34.1004 128.9C29.7004 127.5 27.3004 123.2 27.7004 118.1C28.0004 114.1 29.2004 110.4 30.8004 106.8C32.0004 104.1 33.5004 101.4 34.9004 98.8C35.1004 98.4 35.7004 97.9 36.1004 97.9C47.4004 97.9 58.8004 97.9 70.1004 97.9C70.1004 97.9 70.2004 97.9 70.4004 98C69.4004 101.1 69.4004 104.2 70.9004 107.1C71.6004 108.5 72.6004 109.7 73.4004 110.9C73.5004 110.8 73.7004 110.8 73.8004 110.7C73.9004 109.1 74.0004 107.4 74.1004 105.8C74.6004 97.7 75.1004 89.7 75.5004 81.6C75.6004 79.6 74.9004 78.8 72.9004 78.5C69.4004 78.1 65.9004 77.7 62.3004 77.3C58.1004 76.8 55.3004 73.2 56.2004 69.1C58.3004 58.7 60.5004 48.3 62.7004 37.9C63.7004 33.3 67.5004 30.6 72.1004 31.1C76.2004 31.6 79.2004 35.2 79.3004 39.6C79.3004 40.2 79.6004 41 80.1004 41.5C84.1004 46 89.4004 48.4 95.0004 50.4C97.6004 51.3 100.2 51.8 103 51.7C106.6 51.6 110.3 51.7 113.9 51.7C119 51.7 121.6 54.4 121.6 59.4C121.6 60.6 121.6 61.9 121.6 63.1C121.5 67 118.7 69.9 114.8 69.9C113.4 69.9 112 69.9 110.3 69.9C111.4 77.9 113.1 85.4 120 90.6C124.5 94 126.4 98.6 125.4 104.2C125.3 104.6 125.3 105 125.3 105.4C126.7 105.5 128.1 105.6 129.4 105.8C137.6 107.1 144 114 144.8 122.3C145 123.8 144.6 124.4 142.9 125.4C144 129.8 143.3 134 140.6 137.8C138.4 140.9 135.5 142.8 131.8 143.6C125.4 145.1 116.5 141.9 114 131.9C113.9 131.9 113.8 131.9 113.8 131.9C111.5 134.4 109.9 134.1 108.6 130.9C108.3 130.2 108.1 129.4 108 128.9C106.5 129.1 105.1 129.3 103.7 129.3C91.8004 129.3 80.0004 129.3 68.1004 129.3C66.9004 129.3 66.5004 129.6 66.3004 130.8C65.2004 137.8 58.9004 143 51.7004 142.9C44.5004 142.8 38.4004 137.6 37.3004 130.5C37.6004 130.3 37.5004 130 37.4004 129.6ZM96.6004 113.4C96.6004 96.6 96.6004 79.9 96.6004 63.1C89.1004 62.2 82.3004 59.4 76.3004 54.8C75.7004 57.3 75.2004 59.5 74.7004 61.8C74.3004 63.6 74.8004 64.4 76.5004 65C79.8004 66.3 83.1004 67.5 86.4004 68.7C90.4004 70.2 92.0004 72.6 91.6004 76.8C90.8004 85.4 89.8004 93.9 88.9004 102.5C88.5004 106.1 88.1004 109.7 87.8004 113.4C90.8004 113.4 93.7004 113.4 96.6004 113.4ZM128.9 139.3C136.2 139.3 141.1 131.9 138.3 125.2C137.9 124.2 137.3 123.7 136.2 123.6C130.6 123 125.3 124 120.3 126.8C119.3 127.4 118.8 128.1 118.8 129.3C118.8 134.8 123.4 139.3 128.9 139.3ZM42.2004 129.5C42.3004 134.7 47.4004 138.8 53.0004 138.4C57.8004 138.1 62.4004 133.5 61.9004 129.5C55.4004 129.5 48.8004 129.5 42.2004 129.5Z" fill="#E4E4E4"/>
<path d="M27.9004 38.2C33.1004 38.2 38.3004 38.2 43.6004 38.2C48.1004 38.2 50.9004 41.0999 50.9004 45.5999C50.9004 53.6999 50.9004 61.8 50.9004 69.9C50.9004 74.5 48.0004 77.3 43.4004 77.3C33.1004 77.3 22.7004 77.3 12.4004 77.3C7.70039 77.3 4.90039 74.5 4.90039 69.8C4.90039 61.8 4.90039 53.7 4.90039 45.7C4.90039 41.1 7.80039 38.2999 12.4004 38.2999C17.5004 38.1999 22.7004 38.2 27.9004 38.2Z" fill="#E4E4E4"/>
<path d="M71.5002 93.3C70.8002 93.3 70.4002 93.3 69.9002 93.3C58.4002 93.3 46.9002 93.3 35.4002 93.3C34.4002 93.3 33.7002 93 33.1002 92.2C31.3002 89.8 30.3002 87.1 30.2002 84.1C30.2002 82.4 31.0002 81.5 32.7002 81.5C44.8002 81.5 56.8002 81.5 68.9002 81.5C70.5002 81.5 71.4002 82.3 71.5002 83.8C71.5002 86.9 71.5002 90 71.5002 93.3Z" fill="#E4E4E4"/>
<path d="M89.9004 17.5C89.9004 23.8 84.7004 29 78.4004 29C72.1004 29 66.9004 23.8 66.9004 17.4C67.0004 11.1 72.1004 6 78.4004 6C84.8004 6 89.9004 11.1 89.9004 17.5Z" fill="#E4E4E4"/>
</svg>
