<svg width="120" height="120" viewBox="0 0 120 120" fill="none" xmlns="http://www.w3.org/2000/svg">
<path d="M110.702 60.1586C110.702 32.2806 88.3057 10.0852 60.294 10.0852C32.2154 10.0852 9.95312 32.2806 9.95312 60.2255C9.95312 88.1703 32.1486 110.299 60.2271 110.366C88.4393 110.499 110.768 88.304 110.702 60.1586Z" fill="#E9E9E9"/>
<path d="M4.00013 60.4266C4.06699 29.2728 29.0034 4.26948 60.2909 4.00207C90.9768 3.73465 116.849 29.4733 116.782 60.2929C116.715 91.313 91.3779 116.517 60.2909 116.517C29.3377 116.517 3.93328 91.1793 4.00013 60.4266ZM60.3578 110.433C88.3026 110.433 110.765 87.9703 110.699 60.0923C110.632 32.4817 88.1021 10.2195 60.2909 10.1526C32.6804 10.0858 9.9501 32.6823 9.88325 60.1592C9.88325 87.9703 32.4798 110.433 60.3578 110.433Z" fill="#D3D3D3"/>
<path d="M69.9192 86.1649C63.2339 88.0368 56.2143 88.0368 49.5957 86.098C47.7907 85.5632 45.9856 85.0283 44.1806 84.4935C42.3087 83.8918 41.0385 82.5547 41.9744 80.4154C42.9772 78.2093 44.7154 78.2093 46.721 79.1452C55.412 83.0896 64.103 83.0227 72.7939 79.1452C74.7995 78.2761 76.6046 78.1424 77.5406 80.4154C78.5434 82.7553 76.9389 84.0924 75.067 84.6272C73.3288 85.162 71.6574 85.6969 69.9192 86.1649Z" fill="#D3D3D3"/>
<path d="M75.6002 54.4761C71.9233 54.4761 69.0485 51.6013 69.1154 47.9244C69.1823 44.5817 72.1238 41.5733 75.5334 41.5733C78.9429 41.5064 82.085 44.7154 82.0182 48.1918C81.9513 51.5345 78.9429 54.4761 75.6002 54.4761Z" fill="#D3D3D3"/>
<path d="M51.4 47.9245C51.4 51.4009 48.5253 54.4093 45.1826 54.4093C41.5725 54.4093 38.5641 51.4677 38.631 47.8576C38.6978 44.4481 41.6394 41.5066 45.0489 41.4397C48.3247 41.5066 51.4 44.5818 51.4 47.9245Z" fill="#D3D3D3"/>
</svg>
