<svg width="120" height="120" viewBox="0 0 120 120" fill="none" xmlns="http://www.w3.org/2000/svg">
<path d="M110.144 60.3268C110.144 32.3328 87.7215 10.0449 59.6603 10.0449C31.5991 10.0449 9.24414 32.3328 9.24414 60.394C9.24414 88.4552 31.3977 110.676 59.5261 110.743C87.8558 110.877 110.144 88.5894 110.144 60.3268Z" fill="#E9E9E9"/>
<path d="M116.455 60.1928C116.657 91.0736 91.2808 116.651 60.1986 116.919C28.9151 117.121 3.27062 91.9463 3.0021 60.797C2.73357 29.8491 28.3109 4.20467 59.5944 4.00328C90.4752 3.66761 116.254 29.1778 116.455 60.1928ZM110.145 60.3271C110.145 32.333 87.7227 10.0452 59.6615 10.0452C31.6003 10.0452 9.24537 32.333 9.24537 60.3942C9.24537 88.4554 31.399 110.676 59.5273 110.743C87.857 110.878 110.145 88.5897 110.145 60.3271Z" fill="#D3D3D3"/>
<path d="M59.3963 78.7878C63.9612 78.7878 68.5262 78.7878 73.0912 78.7878C75.1723 78.7878 77.1191 79.2578 77.1191 81.6745C77.1191 84.0913 75.3737 84.6955 73.2254 84.6955C63.827 84.6955 54.4956 84.6955 45.0971 84.6955C42.9489 84.6955 41.1363 84.2255 41.0692 81.8088C41.0021 79.392 42.8146 78.7878 44.9629 78.7878C49.7964 78.855 54.6299 78.7878 59.3963 78.7878Z" fill="#D3D3D3"/>
<path d="M44.4904 54.6208C40.9996 54.6208 37.9115 51.4656 37.9786 48.0419C38.0457 44.7524 41.201 41.6643 44.4233 41.6643C47.847 41.6643 51.0022 44.8866 50.9351 48.3104C50.868 51.667 47.847 54.6208 44.4904 54.6208Z" fill="#D3D3D3"/>
<path d="M81.4799 48.1091C81.4799 51.5328 78.2576 54.6209 74.8339 54.5537C71.4773 54.4866 68.5234 51.4657 68.5234 48.1091C68.5234 44.6853 71.7458 41.5301 75.1695 41.5972C78.459 41.7315 81.4799 44.8867 81.4799 48.1091Z" fill="#D3D3D3"/>
</svg>
