<?xml version="1.0" encoding="UTF-8"?>
<svg width="64px" height="66px" viewBox="0 0 64 66" version="1.1" xmlns="http://www.w3.org/2000/svg" xmlns:xlink="http://www.w3.org/1999/xlink">
    <title>Home Pin</title>
    <defs>
        <filter x="0.0%" y="0.0%" width="100.0%" height="100.0%" filterUnits="objectBoundingBox" id="filter-1">
            <feGaussianBlur stdDeviation="0" in="SourceGraphic"></feGaussianBlur>
        </filter>
        <circle id="path-2" cx="21" cy="21" r="18"></circle>
        <filter x="-19.4%" y="-13.9%" width="138.9%" height="138.9%" filterUnits="objectBoundingBox" id="filter-3">
            <feOffset dx="0" dy="2" in="SourceAlpha" result="shadowOffsetOuter1"></feOffset>
            <feGaussianBlur stdDeviation="2" in="shadowOffsetOuter1" result="shadowBlurOuter1"></feGaussianBlur>
            <feColorMatrix values="0 0 0 0 0   0 0 0 0 0.24701087   0 0 0 0 0.437415082  0 0 0 1 0" type="matrix" in="shadowBlurOuter1"></feColorMatrix>
        </filter>
    </defs>
    <g id="11-track-order" stroke="none" stroke-width="1" fill="none" fill-rule="evenodd">
        <g id="2-tracorder-dispatched" transform="translate(-183.000000, -375.000000)">
            <g id="Group-7" transform="translate(0.000000, 64.000000)">
                <g id="map" transform="translate(152.000000, 74.000000)">
                    <g id="Home-Pin" transform="translate(32.000000, 237.000000)">
                        <path d="M17.6858503,31.225887 C17.6858503,35.3503536 19.0551067,39.1488487 21.3464657,42.1574987 L34.6858503,59.5728038 L48.0254556,42.1574987 C50.316594,39.1488487 51.6858503,35.3503536 51.6858503,31.225887 C51.6858503,21.4918711 44.0595316,13.5728038 34.6858503,13.5728038 C25.3119485,13.5728038 17.6858503,21.4918711 17.6858503,31.225887 Z" id="Fill-1-Copy" fill="#0060AA" opacity="0.182872954" filter="url(#filter-1)" transform="translate(34.685850, 36.572804) rotate(39.000000) translate(-34.685850, -36.572804) "></path>
                        <path d="M21,0 C9.42047416,0 0,9.64060376 0,21.4907101 C0,26.5117998 1.69143428,31.1360547 4.5219366,34.798759 L21,56 L37.4783359,34.798759 C40.3085657,31.1360547 42,26.5117998 42,21.4907101 C42,9.64060376 32.5792533,0 21,0" id="Fill-1" fill="#0060AA"></path>
                        <path d="M20,52 L22,52 L22,58 C22,58.5522847 21.5522847,59 21,59 C20.4477153,59 20,58.5522847 20,58 L20,52 L20,52 Z" id="Rectangle" fill="#0060AA" transform="translate(21.000000, 55.500000) scale(-1, 1) translate(-21.000000, -55.500000) "></path>
                        <g id="Oval">
                            <use fill="black" fill-opacity="1" filter="url(#filter-3)" xlink:href="#path-2"></use>
                            <use fill="#FFFFFF" fill-rule="evenodd" xlink:href="#path-2"></use>
                        </g>
                        <path d="M11,31 L21,31 L21,11 L11,11 L11,31 Z M17.2500813,16 L19.7502439,16 L19.7502439,13.4998374 L17.2500813,13.4998374 L17.2500813,16 Z M12.2500813,16 L14.7499187,16 L14.7499187,13.4998374 L12.2500813,13.4998374 L12.2500813,16 Z M17.2500813,21 L19.7502439,21 L19.7502439,18.5001626 L17.2500813,18.5001626 L17.2500813,21 Z M12.2500813,21 L14.7499187,21 L14.7499187,18.5001626 L12.2500813,18.5001626 L12.2500813,21 Z M17.2500813,26.0003252 L19.7502439,26.0003252 L19.7502439,23.5001626 L17.2500813,23.5001626 L17.2500813,26.0003252 Z M12.2500813,26.0003252 L14.7499187,26.0003252 L14.7499187,23.5001626 L12.2500813,23.5001626 L12.2500813,26.0003252 Z M22.2497561,18.5001626 L30.9996748,18.5001626 L30.9996748,17.2500813 L22.2497561,17.2500813 L22.2497561,18.5001626 Z M22.2497561,19.7502439 L22.2497561,31 L24.7499187,31 L24.7499187,26 L28.5001626,26 L28.5001626,31 L31,31 L31,19.7502439 L22.2497561,19.7502439 Z" id="Fill-1" fill="#0060AA"></path>
                    </g>
                </g>
            </g>
        </g>
    </g>
</svg>