<svg width="120" height="120" viewBox="0 0 120 120" fill="none" xmlns="http://www.w3.org/2000/svg">
<path d="M60.3014 11C50.6772 11.0121 41.4504 15.0818 34.645 22.3166C27.8396 29.5513 24.0114 39.3603 24 49.5917C23.9885 57.9529 26.5576 66.0871 31.3131 72.7467C31.3131 72.7467 32.3032 74.1325 32.4649 74.3325L60.3014 109.233L88.1512 74.315C88.2964 74.129 89.2897 72.7467 89.2897 72.7467L89.293 72.7362C94.0462 66.0795 96.6141 57.949 96.6028 49.5917C96.5915 39.3603 92.7632 29.5513 85.9579 22.3166C79.1525 15.0818 69.9257 11.0121 60.3014 11Z" fill="#0074AD"/>
<path d="M60.3014 21.2335C45.7205 21.2335 33.9004 33.0537 33.9004 47.6345C33.9004 62.2154 45.7205 74.0355 60.3014 74.0355C74.8823 74.0355 86.7024 62.2154 86.7024 47.6345C86.7024 33.0537 74.8823 21.2335 60.3014 21.2335ZM60.3014 33.3995L73.1925 43.4191V61.8696H64.3234V50.7316H56.2794V61.8696H47.4103V43.4191L60.3014 33.3995Z" fill="white"/>
</svg>
