<svg width="120" height="120" viewBox="0 0 120 120" fill="none" xmlns="http://www.w3.org/2000/svg">
<path d="M60.5 1C47.9068 1.01462 35.8336 5.94475 26.9289 14.7089C18.0241 23.4731 13.0149 35.3556 13.0001 47.75C12.985 57.8787 16.3466 67.7326 22.5691 75.8C22.5691 75.8 23.8646 77.4788 24.0762 77.721L60.5 120L96.9411 77.6998C97.1311 77.4745 98.4309 75.8 98.4309 75.8L98.4352 75.7873C104.655 67.7234 108.015 57.8741 108 47.75C107.985 35.3556 102.976 23.4731 94.0711 14.7089C85.1664 5.94475 73.0932 1.01462 60.5 1V1ZM60.5 64.75C57.0838 64.75 53.7443 63.753 50.9038 61.885C48.0633 60.017 45.8494 57.362 44.5421 54.2556C43.2348 51.1493 42.8927 47.7311 43.5592 44.4335C44.2257 41.1358 45.8707 38.1067 48.2863 35.7292C50.702 33.3517 53.7797 31.7326 57.1303 31.0766C60.4808 30.4207 63.9538 30.7574 67.11 32.044C70.2662 33.3307 72.9638 35.5097 74.8617 38.3053C76.7597 41.1009 77.7727 44.3877 77.7727 47.75C77.767 52.257 75.9454 56.5777 72.7073 59.7646C69.4693 62.9515 65.0793 64.7444 60.5 64.75V64.75Z" fill="#0074AD"/>
</svg>
