<svg width="16" height="16" viewBox="0 0 16 16" fill="none" xmlns="http://www.w3.org/2000/svg">
<path d="M7.7037 16C11.9583 16 15.4074 12.4183 15.4074 8C15.4074 3.58172 11.9583 0 7.7037 0C3.44907 0 0 3.58172 0 8C0 12.4183 3.44907 16 7.7037 16Z" fill="#0074AD"/>
<path fill-rule="evenodd" clip-rule="evenodd" d="M12.4302 4.64648C12.6182 4.84176 12.6182 5.15834 12.4302 5.35358L6.42557 11.5881L3.51114 8.56155C3.32311 8.36629 3.32311 8.04971 3.51114 7.85445C3.69917 7.65918 4.00403 7.65918 4.19206 7.85445L6.42563 10.1739L11.7493 4.64642C11.9374 4.45117 12.2422 4.4512 12.4302 4.64648Z" fill="white"/>
</svg>
