<svg width="120" height="120" viewBox="0 0 120 120" fill="none" xmlns="http://www.w3.org/2000/svg">
<path d="M93.875 15.875H75.3333C75.3333 7.67051 68.6815 1 60.5 1C52.3185 1 45.6667 7.67051 45.6667 15.875H27.125C20.9831 15.875 16 20.8721 16 27.0312V108.844C16 115.003 20.9831 120 27.125 120H93.875C100.017 120 105 115.003 105 108.844V27.0312C105 20.8721 100.017 15.875 93.875 15.875ZM38.25 99.5469C35.1674 99.5469 32.6875 97.06 32.6875 93.9688C32.6875 90.8775 35.1674 88.3906 38.25 88.3906C41.3326 88.3906 43.8125 90.8775 43.8125 93.9688C43.8125 97.06 41.3326 99.5469 38.25 99.5469ZM38.25 77.2344C35.1674 77.2344 32.6875 74.7475 32.6875 71.6562C32.6875 68.565 35.1674 66.0781 38.25 66.0781C41.3326 66.0781 43.8125 68.565 43.8125 71.6562C43.8125 74.7475 41.3326 77.2344 38.25 77.2344ZM38.25 54.9219C35.1674 54.9219 32.6875 52.435 32.6875 49.3438C32.6875 46.2525 35.1674 43.7656 38.25 43.7656C41.3326 43.7656 43.8125 46.2525 43.8125 49.3438C43.8125 52.435 41.3326 54.9219 38.25 54.9219ZM60.5 10.2969C63.5826 10.2969 66.0625 12.7838 66.0625 15.875C66.0625 18.9662 63.5826 21.4531 60.5 21.4531C57.4174 21.4531 54.9375 18.9662 54.9375 15.875C54.9375 12.7838 57.4174 10.2969 60.5 10.2969ZM90.1667 95.8281C90.1667 96.8508 89.3323 97.6875 88.3125 97.6875H54.9375C53.9177 97.6875 53.0833 96.8508 53.0833 95.8281V92.1094C53.0833 91.0867 53.9177 90.25 54.9375 90.25H88.3125C89.3323 90.25 90.1667 91.0867 90.1667 92.1094V95.8281ZM90.1667 73.5156C90.1667 74.5383 89.3323 75.375 88.3125 75.375H54.9375C53.9177 75.375 53.0833 74.5383 53.0833 73.5156V69.7969C53.0833 68.7742 53.9177 67.9375 54.9375 67.9375H88.3125C89.3323 67.9375 90.1667 68.7742 90.1667 69.7969V73.5156ZM90.1667 51.2031C90.1667 52.2258 89.3323 53.0625 88.3125 53.0625H54.9375C53.9177 53.0625 53.0833 52.2258 53.0833 51.2031V47.4844C53.0833 46.4617 53.9177 45.625 54.9375 45.625H88.3125C89.3323 45.625 90.1667 46.4617 90.1667 47.4844V51.2031Z" fill="#0074AD"/>
</svg>
