<svg width="120" height="120" viewBox="0 0 120 120" fill="none" xmlns="http://www.w3.org/2000/svg">
<path d="M10 60C10 32.3858 32.3858 10 60 10V10C87.6142 10 110 32.3858 110 60V60C110 87.6142 87.6142 110 60 110V110C32.3858 110 10 87.6142 10 60V60Z" fill="#60C4E3"/>
<path fill-rule="evenodd" clip-rule="evenodd" d="M89.0959 37.9506C90.3015 39.2179 90.3013 41.2725 89.0955 42.5396L50.5924 83L31.9043 63.3586C30.6986 62.0914 30.6986 60.0368 31.9043 58.7696C33.11 57.5024 35.0648 57.5024 36.2705 58.7696L50.5928 73.8225L84.7297 37.9502C85.9355 36.6831 87.8903 36.6833 89.0959 37.9506Z" fill="white"/>
</svg>
