<svg width="120" height="120" viewBox="0 0 120 120" fill="none" xmlns="http://www.w3.org/2000/svg">
<path d="M22.8929 18C17.3517 18 12.0375 20.2125 8.11938 24.1508C4.20121 28.089 2 33.4305 2 39V43.2H119V39C119 33.4305 116.799 28.089 112.881 24.1508C108.962 20.2125 103.648 18 98.1071 18H22.8929ZM119 51.6H2V81C2 86.5695 4.20121 91.911 8.11938 95.8492C12.0375 99.7875 17.3517 102 22.8929 102H98.1071C103.648 102 108.962 99.7875 112.881 95.8492C116.799 91.911 119 86.5695 119 81V51.6ZM81.3929 76.8H98.1071C99.2154 76.8 100.278 77.2425 101.062 78.0301C101.845 78.8178 102.286 79.8861 102.286 81C102.286 82.1139 101.845 83.1822 101.062 83.9698C100.278 84.7575 99.2154 85.2 98.1071 85.2H81.3929C80.2846 85.2 79.2218 84.7575 78.4382 83.9698C77.6545 83.1822 77.2143 82.1139 77.2143 81C77.2143 79.8861 77.6545 78.8178 78.4382 78.0301C79.2218 77.2425 80.2846 76.8 81.3929 76.8Z" fill="#0074AD"/>
</svg>
