<?xml version="1.0" encoding="utf-8"?>
<!-- Generator: Adobe Illustrator 25.2.0, SVG Export Plug-In . SVG Version: 6.00 Build 0)  -->
<svg version="1.1" id="Layer_1" xmlns="http://www.w3.org/2000/svg" xmlns:xlink="http://www.w3.org/1999/xlink" x="0px" y="0px"
	 viewBox="0 0 150 150" style="enable-background:new 0 0 150 150;" xml:space="preserve">
<g>
	<path d="M86.2,148c-2.3-1-3.1-2.8-3.1-5.2c0.1-9.8,0-19.6,0-29.4c0-0.5,0-1,0-1.9c-1.1,1.1-2,1.9-2.9,2.9c-3.1,3.4-7,4.8-11.4,4.8
		c-12.1,0-24.1,0-36.2,0c-7.2,0-12.9-5.8-12.8-12.9c0-7,5.7-12.7,12.9-12.7c10.2,0,20.4,0,30.6,0c1,0,1.7-0.3,2.5-1.1
		c7.5-7.7,14.9-15.5,22.5-23.1c7.1-7.1,15.7-9.5,25.2-6.2c9.6,3.3,15.1,10.3,16.6,20.4c0.2,1.3,0.1,2.6,0.1,3.8c0,18.3,0,36.7,0,55
		c0,2.6-0.8,4.5-3.2,5.6C113.4,148,99.8,148,86.2,148z"/>
	<path d="M119.3,2c0.6,0.2,1.1,0.4,1.7,0.5c5.3,1.6,9,6.3,9.1,11.8c0.1,5.3,0.1,10.6,0,16c-0.3,11.2-9.5,21.3-20.5,22.7
		c-14.1,1.9-26.2-7.4-28-21.5c0-0.1-0.1-0.2-0.2-0.5c-1.7,0-3.6,0-5.4,0c-0.8,0-1.5,0-2.3-0.2c-2-0.5-3.4-2.5-3.2-4.5
		c0.3-2.1,2-3.7,4.1-3.8c1.1-0.1,2.2,0,3.3,0c1.1,0,2.2,0,3.4,0c0-2.6-0.1-5.1,0-7.6c0.2-5.5,2.8-9.6,7.8-11.9c1-0.5,2.1-0.7,3.2-1
		C101.4,2,110.4,2,119.3,2z"/>
	<path d="M42.6,45.9c0,2.4,0,4.7,0,6.9c0,2.7,1.8,4.7,4.3,4.7c2.5,0,4.2-1.9,4.3-4.7c0-2.2,0-4.5,0-6.8c0.4,0,0.8-0.1,1.1-0.1
		c3.2,0,6.5,0,9.7,0c2.8,0,4.6,1.7,4.6,4.5c0,10,0,20,0,30.1c0,2.7-1.8,4.5-4.5,4.5c-10.1,0-20.2,0-30.3,0c-2.7,0-4.5-1.8-4.5-4.4
		c0-10.1,0-20.1,0-30.2c0-2.3,1.6-4.3,3.7-4.3C34.8,45.8,38.6,45.9,42.6,45.9z"/>
</g>
</svg>
