<?xml version="1.0" encoding="utf-8"?>
<!-- Generator: Adobe Illustrator 25.2.0, SVG Export Plug-In . SVG Version: 6.00 Build 0)  -->
<svg version="1.1" id="Layer_1" xmlns="http://www.w3.org/2000/svg" xmlns:xlink="http://www.w3.org/1999/xlink" x="0px" y="0px"
	 viewBox="0 0 150 150" style="enable-background:new 0 0 150 150;" xml:space="preserve">
<g>
	<path d="M78.8,1.5C81.7,2,84.6,2.3,87.5,3c12.3,2.8,22.4,9.1,30.5,18.7c6.8,8.1,11,17.5,12.4,28.1c2.1,15.7-1.7,29.9-11.5,42.4
		c-14.3,18.5-28.7,36.8-43.1,55.2c-0.3,0.3-0.5,0.6-0.9,1.1c-1.3-1.7-2.6-3.3-3.8-4.9c-13.4-17.2-27-34.4-40.3-51.7
		C21.7,80,17.6,66.5,19.4,51.6c2.4-20.3,13-35.1,31.3-44.5C56.8,4,63.4,2.4,70.2,1.7c0.4,0,0.7-0.2,1.1-0.2
		C73.8,1.5,76.3,1.5,78.8,1.5z M113.8,57.5c0-21.3-17.5-38.7-38.8-38.7c-21.3,0-38.7,17.4-38.8,38.7c-0.1,21.3,17.5,38.9,38.8,38.8
		C96.4,96.2,113.8,78.8,113.8,57.5z"/>
	<path d="M75,87.7c-16.6,0-30.1-13.6-30.1-30.2c0-16.6,13.6-30.1,30.2-30.1c16.6,0,30.1,13.6,30.1,30.2
		C105.1,74.1,91.6,87.7,75,87.7z M89,45.9c-6,6-12.1,12.2-18.4,18.5c-3.3-3.3-6.5-6.6-9.6-9.7c-2,2-4,4-5.8,5.8
		C60.4,65.7,65.7,71,70.7,76c8-8,16.2-16.1,24.2-24.1C93,50,91.1,48.1,89,45.9z"/>
</g>
</svg>
