<svg width="150" height="150" viewBox="0 0 150 150" fill="none" xmlns="http://www.w3.org/2000/svg">
<path d="M78.8005 1.5C81.7005 2 84.6005 2.3 87.5005 3C99.8005 5.8 109.9 12.1 118 21.7C124.8 29.8 129 39.2 130.4 49.8C132.5 65.5 128.7 79.7 118.9 92.2C104.6 110.7 90.2005 129 75.8005 147.4C75.5005 147.7 75.3005 148 74.9005 148.5C73.6005 146.8 72.3005 145.2 71.1005 143.6C57.7005 126.4 44.1005 109.2 30.8005 91.9C21.7005 80 17.6005 66.5 19.4005 51.6C21.8005 31.3 32.4005 16.5 50.7005 7.1C56.8005 4 63.4005 2.4 70.2005 1.7C70.6005 1.7 70.9005 1.5 71.3005 1.5C73.8005 1.5 76.3005 1.5 78.8005 1.5ZM113.8 57.5C113.8 36.2 96.3005 18.8 75.0005 18.8C53.7005 18.8 36.3005 36.2 36.2005 57.5C36.1005 78.8 53.7005 96.4 75.0005 96.3C96.4005 96.2 113.8 78.8 113.8 57.5Z" fill="#E4E4E4"/>
<path d="M75.0004 87.6999C58.4004 87.6999 44.9004 74.0999 44.9004 57.4999C44.9004 40.8999 58.5004 27.3999 75.1004 27.3999C91.7004 27.3999 105.2 40.9999 105.2 57.5999C105.1 74.0999 91.6004 87.6999 75.0004 87.6999ZM89.0004 45.8999C83.0004 51.8999 76.9004 58.0999 70.6004 64.3999C67.3004 61.0999 64.1004 57.7999 61.0004 54.6999C59.0004 56.6999 57.0004 58.6999 55.2004 60.4999C60.4004 65.6999 65.7004 70.9999 70.7004 75.9999C78.7004 67.9999 86.9004 59.8999 94.9004 51.8999C93.0004 49.9999 91.1004 48.0999 89.0004 45.8999Z" fill="#E4E4E4"/>
</svg>
