<svg width="120" height="120" viewBox="0 0 120 120" fill="none" xmlns="http://www.w3.org/2000/svg">
<path d="M34.0078 37.4927L34.6844 36.6258C36.179 34.7107 35.9303 31.8701 34.1288 30.2812L28.194 25.0466C26.3926 23.4577 23.7206 23.7221 22.226 25.6372L21.5494 26.5041C20.0548 28.4192 20.3035 31.2598 22.105 32.8487L28.0397 38.0833C29.8412 39.6723 32.5132 39.4078 34.0078 37.4927Z" fill="black"/>
<path d="M39.0833 42.8799L40.6022 40.9336C41.9648 39.1878 41.738 36.5982 40.0958 35.1497L32.0656 28.0669C30.4234 26.6184 27.9875 26.8595 26.625 28.6053L25.106 30.5517C23.7435 32.2975 23.9702 34.887 25.6125 36.3355L33.6426 43.4183C35.2849 44.8668 37.7207 44.6258 39.0833 42.8799Z" fill="#D62027"/>
<path d="M39.0932 42.8668L40.5918 40.9467L26.6146 28.6184L25.116 30.5385L39.0932 42.8668Z" fill="white"/>
<path d="M40.2976 52.322L46.4366 66.9906C46.7502 67.7393 47.2383 68.3906 47.8547 68.883C48.471 69.3753 49.1953 69.6925 49.959 69.8044C50.7227 69.9163 51.5007 69.8194 52.2193 69.5226C52.938 69.2259 53.5736 68.7391 54.066 68.1085L66.6951 51.9265C67.1872 51.2956 67.5198 50.5416 67.6615 49.7359C67.8032 48.9303 67.7492 48.0996 67.5048 47.3223C67.2604 46.545 66.8335 45.8469 66.2646 45.2938C65.6957 44.7407 65.0033 44.3511 64.2532 44.1617L49.5593 40.4547C43.0418 38.8106 37.5746 45.8158 40.2976 52.322Z" fill="#3A3A3A"/>
<path d="M97.7067 93.5448L98.2148 92.8937C99.3377 91.4548 99.1509 89.3207 97.7975 88.127L93.339 84.1945C91.9856 83.0007 89.9781 83.1994 88.8552 84.6382L88.347 85.2894C87.2241 86.7282 87.411 88.8623 88.7644 90.0561L93.2229 93.9885C94.5763 95.1823 96.5837 94.9836 97.7067 93.5448Z" fill="black"/>
<path d="M92.1707 89.3419L93.3552 87.8242C94.4173 86.4632 94.2405 84.4446 92.9604 83.3155L86.7 77.7937C85.4199 76.6646 83.5211 76.8525 82.4589 78.2134L81.2745 79.7311C80.2123 81.0921 80.3891 83.1107 81.6693 84.2398L87.9296 89.7616C89.2098 90.8907 91.1086 90.7028 92.1707 89.3419Z" fill="#D62027"/>
<path d="M92.1785 89.3315L93.3467 87.8346L82.4505 78.2238L81.2822 79.7207L92.1785 89.3315Z" fill="white"/>
<path d="M82.8715 81.4434L84.5186 79.3329C85.5797 77.9732 86.3521 76.3861 86.783 74.6798C87.214 72.9736 87.2934 71.1885 87.0157 69.4466L86.907 68.7637L83.4368 65.7029L70.0709 82.829L73.5411 85.8898L74.1924 85.8775C75.854 85.8461 77.4898 85.4337 78.9877 84.6684C80.4856 83.9031 81.8103 82.8031 82.8715 81.4434V81.4434Z" fill="#4FBAAB"/>
<path d="M70.4311 80.0615L80.957 66.5743L59.9991 48.0889L49.4732 61.5761L70.4311 80.0615Z" fill="#4687DC"/>
<path d="M83.3722 65.3714C84.2826 66.1792 84.8553 67.3372 84.9652 68.5925C85.0752 69.8478 84.7133 71.0983 83.9588 72.0709L76.0524 82.2015C75.2925 83.1694 74.2033 83.7782 73.0225 83.8951C71.8417 84.012 70.6653 83.6275 69.7504 82.8254V82.8254C69.5228 82.6246 69.3796 82.3359 69.3522 82.0228C69.3248 81.7098 69.4153 81.3981 69.6041 81.1561L81.8009 65.528C81.8943 65.408 82.0092 65.3086 82.1388 65.2358C82.2683 65.163 82.4101 65.118 82.556 65.1034C82.7019 65.0889 82.8492 65.105 82.9892 65.151C83.1292 65.197 83.2594 65.2719 83.3722 65.3714Z" fill="#747474"/>
<path d="M79.713 69.415C79.1288 70.1635 79.226 71.2737 79.9301 71.8947C80.6342 72.5157 81.6785 72.4123 82.2626 71.6639C82.8468 70.9154 82.7496 69.8052 82.0455 69.1842C81.3414 68.5632 80.2971 68.6665 79.713 69.415Z" fill="black"/>
<path d="M72.8126 78.2559C72.2284 79.0044 72.3256 80.1146 73.0297 80.7356C73.7338 81.3566 74.7781 81.2533 75.3622 80.5048C75.9464 79.7563 75.8492 78.6461 75.1451 78.0251C74.441 77.4041 73.3967 77.5074 72.8126 78.2559Z" fill="black"/>
<path d="M77.8094 73.9716L78.3125 73.327L77.7061 72.7922L77.2031 73.4368L77.8094 73.9716Z" fill="black"/>
<path d="M76.992 75.0212L77.4951 74.3766L76.8888 73.8418L76.3857 74.4864L76.992 75.0212Z" fill="black"/>
<path d="M76.1717 76.0708L76.6748 75.4261L76.0685 74.8913L75.5654 75.5359L76.1717 76.0708Z" fill="black"/>
<path d="M67.6774 85.6428L72.9345 85.1224C73.6847 85.0482 74.4138 84.8178 75.0803 84.444C75.7467 84.0702 76.3373 83.5605 76.8185 82.944L85.1348 72.2881C86.1065 71.043 86.5731 69.4386 86.432 67.8277L85.9427 62.239" stroke="#333333" stroke-width="5" stroke-miterlimit="10"/>
<path d="M81.0621 81.7765L84.2203 77.7298C84.7944 76.9942 84.6989 75.9032 84.007 75.2929L82.75 74.1843C82.0581 73.574 81.0318 73.6756 80.4578 74.4111L77.2995 78.4579C76.7255 79.1934 76.821 80.2845 77.5129 80.8948L78.7698 82.0034C79.4617 82.6137 80.488 82.5121 81.0621 81.7765Z" fill="white"/>
<path d="M43.6371 48.2455L46.2531 44.8934C47.2053 43.6801 48.5706 42.9169 50.0506 42.7704C51.5305 42.624 53.0048 43.1063 54.1512 44.1119L65.7247 51.9759C68.099 54.0701 66.5643 56.2027 64.5944 58.7268L59.966 64.6572C57.9961 67.1813 56.3076 69.1786 53.9334 67.0844L44.3722 56.642C43.2311 55.6296 42.5134 54.1782 42.3756 52.6049C42.2379 51.0316 42.6913 49.4644 43.6371 48.2455V48.2455Z" fill="#4687DC"/>
<path d="M41.4082 58.7254L55.7596 40.3364C56.7014 39.1297 56.5447 37.3399 55.4096 36.3387L39.3109 22.1392C38.1758 21.1381 36.4922 21.3047 35.5504 22.5114L21.1989 40.9003C20.2572 42.107 20.4139 43.8968 21.549 44.898L37.6477 59.0975C38.7828 60.0987 40.4664 59.9321 41.4082 58.7254Z" fill="#006490"/>
<path d="M62.5825 84.2994C61.4698 85.7252 61.655 87.8399 62.9961 89.0229C64.3373 90.2058 66.3266 90.009 67.4393 88.5832C68.5521 87.1574 68.3669 85.0426 67.0257 83.8597C65.6845 82.6767 63.6953 82.8736 62.5825 84.2994Z" fill="#FFE0B4"/>
<path d="M83.4116 57.6099C82.2989 59.0357 82.4841 61.1505 83.8252 62.3334C85.1664 63.5164 87.1557 63.3195 88.2684 61.8937C89.3812 60.468 89.196 58.3532 87.8548 57.1702C86.5137 55.9873 84.5244 56.1842 83.4116 57.6099Z" fill="#FFE0B4"/>
<path d="M57.7695 57.5234C64.6132 48.7543 76.3698 47.0787 83.977 53.7885L85.4091 55.0516C85.7166 55.3179 85.9716 55.6463 86.1591 56.0179C86.3465 56.3895 86.4629 56.7968 86.5014 57.2165C86.54 57.6362 86.4998 58.06 86.3835 58.4631C86.2672 58.8663 86.077 59.2408 85.8238 59.5653C85.5705 59.8898 85.2592 60.1578 84.908 60.3538C84.5568 60.5497 84.1724 60.6699 83.7773 60.707C83.3822 60.7442 82.9841 60.6979 82.6059 60.5706C82.2278 60.4433 81.8772 60.2375 81.5742 59.9654L80.1421 58.7022C75.0837 54.2405 67.1213 55.5408 62.3922 61.6003C57.6631 67.6599 57.9308 76.219 62.9893 80.6807L64.4213 81.9438C64.7289 82.2101 64.9838 82.5384 65.1713 82.9101C65.3588 83.2817 65.4751 83.689 65.5137 84.1087C65.5522 84.5284 65.5121 84.9522 65.3958 85.3553C65.2794 85.7585 65.0891 86.1332 64.8358 86.4577C64.5826 86.7822 64.2715 87.05 63.9202 87.246C63.569 87.4419 63.1846 87.562 62.7895 87.5992C62.3944 87.6364 61.9963 87.5901 61.6182 87.4628C61.24 87.3355 60.8894 87.1297 60.5864 86.8576L59.1544 85.5944C51.5469 78.8851 50.9258 66.2924 57.7695 57.5234Z" fill="#A82A5E"/>
<path d="M60.9787 60.5438C58.4509 63.7829 59.0726 68.7644 62.3674 71.6705C65.6622 74.5766 70.3824 74.3067 72.9102 71.0677C75.4381 67.8287 74.8163 62.8472 71.5216 59.9411C68.2268 57.035 63.5066 57.3048 60.9787 60.5438Z" fill="#D62027"/>
<path d="M29.6989 33.0491C25.7756 38.0762 26.4285 45.5325 31.1572 49.7033C35.8859 53.8741 42.8997 53.1801 46.823 48.153C50.7463 43.126 50.0934 35.6697 45.3647 31.4988C40.636 27.328 33.6222 28.0221 29.6989 33.0491Z" fill="white"/>
<path fill-rule="evenodd" clip-rule="evenodd" d="M38.6405 36.4126L45.4979 36.7221C45.784 36.7376 46.0076 36.9955 45.9989 37.2999L45.7227 44.201C45.7081 44.5051 45.4655 44.7429 45.1791 44.7336L38.322 44.4179L38.6405 36.4126ZM42.2256 39.1979C42.9456 39.2291 43.503 39.8785 43.4737 40.644C43.4443 41.4094 42.8334 42.002 42.1134 41.9708C41.3934 41.9396 40.836 41.2902 40.8653 40.5247C40.8977 39.7563 41.5027 39.1635 42.2256 39.1979Z" fill="#E61E29"/>
<path fill-rule="evenodd" clip-rule="evenodd" d="M35.5158 40.3302C36.2358 40.3614 36.7932 41.0108 36.7639 41.7763C36.7346 42.5417 36.1237 43.1343 35.4037 43.1031C34.6836 43.0719 34.1262 42.4225 34.1556 41.657C34.188 40.8886 34.7958 40.299 35.5158 40.3302ZM32.9193 37.3552C33.6393 37.3864 34.1967 38.0358 34.1674 38.8012C34.1381 39.5667 33.5272 40.1593 32.8072 40.1281C32.0872 40.0969 31.5298 39.4475 31.5591 38.682C31.5915 37.9136 32.1995 37.3177 32.9193 37.3552ZM31.1562 36.0816L38.0108 36.3878L37.6923 44.3931L30.8377 44.0869C30.5516 44.0714 30.328 43.8135 30.3367 43.509L30.6129 36.608C30.6244 36.3069 30.8701 36.0661 31.1562 36.0816Z" fill="#0074AD"/>
</svg>
