<svg width="120" height="120" viewBox="0 0 120 120" fill="none" xmlns="http://www.w3.org/2000/svg">
<path d="M10 36.3158C10 21.782 21.782 10 36.3158 10H83.6842C98.218 10 110 21.782 110 36.3158V83.6842C110 98.218 98.218 110 83.6842 110H36.3158C21.782 110 10 98.218 10 83.6842V36.3158Z" fill="#56C427"/>
<path d="M56.6559 64.4193C60.0433 67.7613 64.1421 70.3415 68.6642 71.9787L74.782 67.2442C74.9634 67.1227 75.1784 67.0577 75.3986 67.0577C75.6189 67.0577 75.8339 67.1227 76.0153 67.2442L87.3745 74.3617C87.8058 74.6139 88.1708 74.9601 88.4408 75.373C88.7109 75.7859 88.8785 76.2543 88.9304 76.741C88.9823 77.2277 88.9172 77.7196 88.7401 78.1776C88.563 78.6357 88.2788 79.0474 87.91 79.3803L82.5874 84.4935C81.8252 85.226 80.8883 85.7636 79.8604 86.0582C78.8326 86.3529 77.7457 86.3954 76.6968 86.1822C66.2337 84.0806 56.5896 79.1586 48.8667 71.9787C41.3152 64.7274 36.0896 55.5008 33.8238 45.4182C33.5999 44.4139 33.6467 43.3704 33.9594 42.3888C34.2721 41.4073 34.8403 40.5209 35.6088 39.8157L41.1262 34.6393C41.4676 34.2981 41.884 34.0364 42.3441 33.8738C42.8043 33.7113 43.2963 33.6521 43.7833 33.7007C44.2703 33.7493 44.7397 33.9044 45.1563 34.1544C45.5729 34.4044 45.926 34.7428 46.1891 35.1443L53.7511 46.0494C53.8816 46.2207 53.952 46.4281 53.952 46.6412C53.952 46.8543 53.8816 47.0618 53.7511 47.2331L48.7693 53.0565C50.4985 57.3664 53.1925 61.2478 56.6559 64.4193V64.4193Z" fill="white"/>
</svg>
