<svg width="120" height="120" viewBox="0 0 120 120" fill="none" xmlns="http://www.w3.org/2000/svg">
<path d="M110.059 60.3466C110.059 32.3752 87.5876 10.1055 59.4821 10.1055C31.3095 10.1055 8.97266 32.3752 8.97266 60.4137C8.97266 88.4521 31.2424 110.655 59.415 110.722C87.7217 110.856 110.126 88.5862 110.059 60.3466Z" fill="#DAF3FF"/>
<path d="M3.00013 60.6156C3.06721 29.3574 28.0872 4.27038 59.4795 4.00207C90.2681 3.73376 116.227 29.5586 116.16 60.4814C116.093 91.6054 90.6706 116.894 59.4795 116.894C28.4225 116.894 2.93305 91.4712 3.00013 60.6156ZM59.5465 110.79C87.585 110.79 110.123 88.2515 110.056 60.2802C109.989 32.5771 87.3837 10.2403 59.4795 10.1732C31.7764 10.1061 8.97003 32.7784 8.90295 60.3472C8.90295 88.2515 31.5752 110.79 59.5465 110.79Z" fill="#0074AD"/>
<path d="M69.1408 86.4399C62.4331 88.318 55.39 88.318 48.7493 86.3728C46.9382 85.8362 45.1271 85.2995 43.316 84.7629C41.4378 84.1592 40.1633 82.8177 41.1024 80.6712C42.1086 78.4576 43.8526 78.4576 45.8649 79.3967C54.585 83.3543 63.3051 83.2872 72.0252 79.3967C74.0375 78.5247 75.8486 78.3905 76.7877 80.6712C77.7939 83.0189 76.184 84.3605 74.3058 84.8971C72.5618 85.4337 70.8849 85.9703 69.1408 86.4399Z" fill="#0074AD"/>
<path d="M74.8397 54.645C71.1504 54.645 68.2661 51.7607 68.3332 48.0714C68.4003 44.7175 71.3517 41.699 74.7726 41.699C78.1936 41.632 81.3463 44.8517 81.2792 48.3397C81.2121 51.6936 78.1936 54.645 74.8397 54.645Z" fill="#0074AD"/>
<path d="M50.558 48.0717C50.558 51.5597 47.6737 54.5782 44.3198 54.5782C40.6976 54.5782 37.6791 51.6268 37.7462 48.0046C37.8133 44.5837 40.7647 41.6323 44.1856 41.5652C47.4724 41.6323 50.558 44.7178 50.558 48.0717Z" fill="#0074AD"/>
</svg>
