<?xml version="1.0" encoding="utf-8"?>
<!-- Generator: Adobe Illustrator 25.2.0, SVG Export Plug-In . SVG Version: 6.00 Build 0)  -->
<svg version="1.1" id="Layer_1" xmlns="http://www.w3.org/2000/svg" xmlns:xlink="http://www.w3.org/1999/xlink" x="0px" y="0px"
	 viewBox="0 0 150 150" style="enable-background:new 0 0 150 150;" xml:space="preserve">
<g>
	<path d="M64.6,35.5c2.2,2.1,4.2,4.2,6.2,6.2c2.8,2.7,5.6,2.7,8.4,0c2-2,3.9-3.9,5.9-5.9c0.1-0.1,0.2-0.1,0.4-0.2
		c2.2,2.2,4.4,4.4,6.7,6.6c1.5,1.4,3.2,2,5.2,1.3c2-0.6,3.2-2,3.6-4c0.1-0.7,0.1-1.4,0.1-2.1c0-11.1,0-22.3,0-33.4
		c0-0.6,0-1.2,0-1.8c0.4,0,0.7-0.1,0.9-0.1c8.6,0,17.2-0.1,25.7,0c10.9,0.1,20.1,9.2,20.2,20.1c0.1,17.2,0,34.4,0,51.6
		c0,0.2,0,0.5-0.1,1c-11.5-14.1-26.1-21.2-44-20.5c-14.3,0.6-26.4,6.3-36,16.9c-20.2,22-18.1,57.5,6.9,76.8c-0.6,0-1.1,0.1-1.5,0.1
		c-16.7,0-33.5,0-50.2,0c-11.8,0-21-9.2-21-21C2,92.3,2,57.7,2,23.1c0-11.8,9.2-21,21-21c8.5,0,16.9,0,25.4,0c0.1,0,0.2,0,0.5,0.1
		c0,0.5,0,1.1,0,1.7c0,11.5,0,22.9,0,34.4c0,4.2,4,6.8,7.5,4.9c0.7-0.4,1.3-0.9,1.9-1.5C60.4,39.7,62.5,37.6,64.6,35.5z"/>
	<path d="M64.6,106.3c0-23,18.7-41.7,41.6-41.7c23.2,0,41.8,18.7,41.8,41.8c0,22.8-18.7,41.6-41.6,41.6
		C83.3,148,64.6,129.4,64.6,106.3z M101,109.3c-2.3-2.3-4.5-4.5-6.7-6.7c-2.1-2.1-5.3-2-7.3,0c-2,2-2.2,5.2-0.1,7.3
		c3.5,3.6,7,7.1,10.6,10.6c2.1,2,5.1,2.1,7.2,0c7.1-7,14.1-14,21.1-21.1c1.4-1.4,1.8-3.1,1.3-5c-1.1-4-5.8-5.1-8.9-2.1
		C112.4,97.9,106.8,103.5,101,109.3z"/>
	<path d="M90.6,2.1c0,7.9,0,15.6,0,23.6c-0.5-0.4-0.8-0.7-1.2-1.1c-2.5-2.5-5.5-2.5-8,0.1c-2.1,2.1-4.2,4.2-6.4,6.3
		c-2-2-4-3.9-5.9-5.9c-3.2-3.1-5.8-3.2-9,0c-0.2,0.1-0.3,0.3-0.6,0.5c0-7.9,0-15.7,0-23.6C69.8,2.1,80.1,2.1,90.6,2.1z"/>
</g>
</svg>
