<?xml version="1.0" encoding="utf-8"?>
<!-- Generator: Adobe Illustrator 25.2.0, SVG Export Plug-In . SVG Version: 6.00 Build 0)  -->
<svg version="1.1" id="Layer_1" xmlns="http://www.w3.org/2000/svg" xmlns:xlink="http://www.w3.org/1999/xlink" x="0px" y="0px"
	 viewBox="0 0 150 150" style="enable-background:new 0 0 150 150;" xml:space="preserve">
<g>
	<path d="M37.4,129.6c-1.1-0.2-2.3-0.3-3.3-0.7c-4.4-1.4-6.8-5.7-6.4-10.8c0.3-4,1.5-7.7,3.1-11.3c1.2-2.7,2.7-5.4,4.1-8
		c0.2-0.4,0.8-0.9,1.2-0.9c11.3,0,22.7,0,34,0c0,0,0.1,0,0.3,0.1c-1,3.1-1,6.2,0.5,9.1c0.7,1.4,1.7,2.6,2.5,3.8
		c0.1-0.1,0.3-0.1,0.4-0.2c0.1-1.6,0.2-3.3,0.3-4.9c0.5-8.1,1-16.1,1.4-24.2c0.1-2-0.6-2.8-2.6-3.1c-3.5-0.4-7-0.8-10.6-1.2
		c-4.2-0.5-7-4.1-6.1-8.2c2.1-10.4,4.3-20.8,6.5-31.2c1-4.6,4.8-7.3,9.4-6.8c4.1,0.5,7.1,4.1,7.2,8.5c0,0.6,0.3,1.4,0.8,1.9
		c4,4.5,9.3,6.9,14.9,8.9c2.6,0.9,5.2,1.4,8,1.3c3.6-0.1,7.3,0,10.9,0c5.1,0,7.7,2.7,7.7,7.7c0,1.2,0,2.5,0,3.7
		c-0.1,3.9-2.9,6.8-6.8,6.8c-1.4,0-2.8,0-4.5,0c1.1,8,2.8,15.5,9.7,20.7c4.5,3.4,6.4,8,5.4,13.6c-0.1,0.4-0.1,0.8-0.1,1.2
		c1.4,0.1,2.8,0.2,4.1,0.4c8.2,1.3,14.6,8.2,15.4,16.5c0.2,1.5-0.2,2.1-1.9,3.1c1.1,4.4,0.4,8.6-2.3,12.4c-2.2,3.1-5.1,5-8.8,5.8
		c-6.4,1.5-15.3-1.7-17.8-11.7c-0.1,0-0.2,0-0.2,0c-2.3,2.5-3.9,2.2-5.2-1c-0.3-0.7-0.5-1.5-0.6-2c-1.5,0.2-2.9,0.4-4.3,0.4
		c-11.9,0-23.7,0-35.6,0c-1.2,0-1.6,0.3-1.8,1.5c-1.1,7-7.4,12.2-14.6,12.1c-7.2-0.1-13.3-5.3-14.4-12.4
		C37.6,130.3,37.5,130,37.4,129.6z M96.6,113.4c0-16.8,0-33.5,0-50.3c-7.5-0.9-14.3-3.7-20.3-8.3c-0.6,2.5-1.1,4.7-1.6,7
		c-0.4,1.8,0.1,2.6,1.8,3.2c3.3,1.3,6.6,2.5,9.9,3.7c4,1.5,5.6,3.9,5.2,8.1c-0.8,8.6-1.8,17.1-2.7,25.7c-0.4,3.6-0.8,7.2-1.1,10.9
		C90.8,113.4,93.7,113.4,96.6,113.4z M128.9,139.3c7.3,0,12.2-7.4,9.4-14.1c-0.4-1-1-1.5-2.1-1.6c-5.6-0.6-10.9,0.4-15.9,3.2
		c-1,0.6-1.5,1.3-1.5,2.5C118.8,134.8,123.4,139.3,128.9,139.3z M42.2,129.5c0.1,5.2,5.2,9.3,10.8,8.9c4.8-0.3,9.4-4.9,8.9-8.9
		C55.4,129.5,48.8,129.5,42.2,129.5z"/>
	<path d="M27.9,38.2c5.2,0,10.4,0,15.7,0c4.5,0,7.3,2.9,7.3,7.4c0,8.1,0,16.2,0,24.3c0,4.6-2.9,7.4-7.5,7.4c-10.3,0-20.7,0-31,0
		c-4.7,0-7.5-2.8-7.5-7.5c0-8,0-16.1,0-24.1c0-4.6,2.9-7.4,7.5-7.4C17.5,38.2,22.7,38.2,27.9,38.2z"/>
	<path d="M71.5,93.3c-0.7,0-1.1,0-1.6,0c-11.5,0-23,0-34.5,0c-1,0-1.7-0.3-2.3-1.1c-1.8-2.4-2.8-5.1-2.9-8.1c0-1.7,0.8-2.6,2.5-2.6
		c12.1,0,24.1,0,36.2,0c1.6,0,2.5,0.8,2.6,2.3C71.5,86.9,71.5,90,71.5,93.3z"/>
	<path d="M89.9,17.5c0,6.3-5.2,11.5-11.5,11.5c-6.3,0-11.5-5.2-11.5-11.6C67,11.1,72.1,6,78.4,6C84.8,6,89.9,11.1,89.9,17.5z"/>
</g>
</svg>
