<svg width="120" height="120" viewBox="0 0 120 120" fill="none" xmlns="http://www.w3.org/2000/svg">
<path d="M110.895 60.2239C110.895 32.3458 88.4991 10.1504 60.4874 10.1504C32.4088 10.1504 10.1465 32.3458 10.1465 60.2907C10.1465 88.2356 32.3419 110.364 60.4205 110.431C88.6328 110.565 110.895 88.3693 110.895 60.2239Z" fill="#E9E9E9"/>
<path d="M116.782 60.291C116.716 91.378 91.3779 116.649 60.3577 116.515C29.2039 116.448 4 91.1775 4 60.1573C4 29.4714 29.4713 4.13384 60.2909 4.00013C91.3111 3.93328 116.849 29.4046 116.782 60.291ZM60.3577 110.498C88.1021 110.565 110.766 88.2359 110.899 60.6253C111.033 33.0815 88.5032 10.2844 60.9594 10.2175C32.814 10.0838 10.1505 32.4798 10.1505 60.4247C10.0837 88.0353 32.5466 110.431 60.3577 110.498Z" fill="#D3D3D3"/>
<path d="M50.8634 76.6036C56.7466 74.9991 62.8971 74.9322 68.7802 76.6036C71.0533 77.2053 73.2594 77.8738 75.4656 78.5423C77.3375 79.144 78.6746 80.5479 77.7386 82.6204C76.8027 84.6929 75.0645 84.8266 72.992 83.8906C64.3679 80.0131 55.6101 79.9463 46.9191 83.8906C45.114 84.6929 43.3758 85.0271 42.373 82.9547C41.2365 80.6816 42.4398 79.0772 44.646 78.4086C46.6516 77.8069 48.7241 77.2053 50.8634 76.6036Z" fill="#D3D3D3"/>
<path d="M45.3139 41.6386C48.8571 41.7054 51.7987 44.8475 51.5981 48.3908C51.4644 51.9341 48.6566 54.5414 45.1133 54.5414C41.5701 54.5414 38.6285 51.3992 38.7622 47.856C38.9628 44.5133 42.038 41.5717 45.3139 41.6386Z" fill="#D3D3D3"/>
<path d="M69.381 48.1906C69.3141 44.7811 72.2557 41.639 75.5316 41.5721C79.0748 41.5053 82.2169 44.5805 82.1501 48.1238C82.0832 51.6002 79.2754 54.408 75.799 54.5418C72.4563 54.6086 69.381 51.667 69.381 48.1906Z" fill="#D3D3D3"/>
</svg>
