<svg width="120" height="120" viewBox="0 0 120 120" fill="none" xmlns="http://www.w3.org/2000/svg">
<path d="M11 37.4C11 22.8197 22.8197 11 37.4 11H83.6C98.1803 11 110 22.8197 110 37.4V83.6C110 98.1803 98.1803 110 83.6 110H37.4C22.8197 110 11 98.1803 11 83.6V37.4Z" fill="#0074AD"/>
<path fill-rule="evenodd" clip-rule="evenodd" d="M59.9014 48.8002C63.2151 48.8002 65.9014 51.4865 65.9014 54.8002L65.9014 90.8002C65.9014 94.1139 63.2151 96.8002 59.9014 96.8002C56.5877 96.8002 53.9014 94.1139 53.9014 90.8002L53.9014 54.8002C53.9014 51.4865 56.5877 48.8002 59.9014 48.8002Z" fill="white"/>
<path d="M53.9004 36.8C53.9004 33.4863 56.5867 30.8 59.9004 30.8V30.8C63.2141 30.8 65.9004 33.4863 65.9004 36.8V36.8C65.9004 40.1138 63.2141 42.8 59.9004 42.8V42.8C56.5867 42.8 53.9004 40.1138 53.9004 36.8V36.8Z" fill="white"/>
</svg>
