<svg width="120" height="120" viewBox="0 0 120 120" fill="none" xmlns="http://www.w3.org/2000/svg">
<path d="M60 11C49.9254 11.0122 40.2669 15.1137 33.1431 22.4049C26.0193 29.6961 22.0119 39.5816 22 49.8929C21.988 58.3193 24.6772 66.517 29.6553 73.2286C29.6553 73.2286 30.6917 74.6252 30.8609 74.8267L60 110L89.1529 74.809C89.3049 74.6216 90.3447 73.2286 90.3447 73.2286L90.3482 73.218C95.3237 66.5093 98.0118 58.3154 98 49.8929C97.9881 39.5816 93.9807 29.6961 86.8569 22.4049C79.7331 15.1137 70.0746 11.0122 60 11V11ZM60 64.0357C57.267 64.0357 54.5954 63.2063 52.323 61.6522C50.0507 60.0982 48.2795 57.8894 47.2337 55.3051C46.1878 52.7208 45.9142 49.8772 46.4473 47.1337C46.9805 44.3903 48.2966 41.8703 50.2291 39.8923C52.1616 37.9144 54.6237 36.5675 57.3042 36.0218C59.9847 35.476 62.763 35.7561 65.288 36.8266C67.8129 37.897 69.971 39.7097 71.4894 42.0355C73.0077 44.3613 73.8182 47.0957 73.8182 49.8929C73.8136 53.6423 72.3563 57.2369 69.7659 59.8882C67.1755 62.5395 63.6634 64.031 60 64.0357V64.0357Z" fill="#0074AD"/>
</svg>
