<svg width="150" height="150" viewBox="0 0 150 150" fill="none" xmlns="http://www.w3.org/2000/svg">
<path d="M86.2001 148C83.9001 147 83.1001 145.2 83.1001 142.8C83.2001 133 83.1001 123.2 83.1001 113.4C83.1001 112.9 83.1001 112.4 83.1001 111.5C82.0001 112.6 81.1001 113.4 80.2001 114.4C77.1001 117.8 73.2001 119.2 68.8001 119.2C56.7001 119.2 44.7001 119.2 32.6001 119.2C25.4001 119.2 19.7001 113.4 19.8001 106.3C19.8001 99.3001 25.5001 93.6001 32.7001 93.6001C42.9001 93.6001 53.1001 93.6001 63.3001 93.6001C64.3001 93.6001 65.0001 93.3001 65.8001 92.5001C73.3001 84.8001 80.7001 77.0001 88.3001 69.4001C95.4001 62.3001 104 59.9001 113.5 63.2001C123.1 66.5001 128.6 73.5001 130.1 83.6001C130.3 84.9001 130.2 86.2001 130.2 87.4001C130.2 105.7 130.2 124.1 130.2 142.4C130.2 145 129.4 146.9 127 148C113.4 148 99.8001 148 86.2001 148Z" fill="#E4E4E4"/>
<path d="M119.3 2C119.9 2.2 120.4 2.4 121 2.5C126.3 4.1 130 8.8 130.1 14.3C130.2 19.6 130.2 24.9 130.1 30.3C129.8 41.5 120.6 51.6 109.6 53C95.5004 54.9 83.4004 45.6 81.6004 31.5C81.6004 31.4 81.5004 31.3 81.4004 31C79.7004 31 77.8004 31 76.0004 31C75.2004 31 74.5004 31 73.7004 30.8C71.7004 30.3 70.3004 28.3 70.5004 26.3C70.8004 24.2 72.5004 22.6 74.6004 22.5C75.7004 22.4 76.8004 22.5 77.9004 22.5C79.0004 22.5 80.1005 22.5 81.3005 22.5C81.3005 19.9 81.2005 17.4 81.3005 14.9C81.5005 9.4 84.1004 5.3 89.1004 3C90.1004 2.5 91.2004 2.3 92.3004 2C101.4 2 110.4 2 119.3 2Z" fill="#E4E4E4"/>
<path d="M42.5998 45.9C42.5998 48.3 42.5998 50.6 42.5998 52.8C42.5998 55.5 44.3998 57.5 46.8998 57.5C49.3998 57.5 51.0998 55.6 51.1998 52.8C51.1998 50.6 51.1998 48.3 51.1998 46C51.5998 46 51.9998 45.9 52.2998 45.9C55.4998 45.9 58.7998 45.9 61.9998 45.9C64.7998 45.9 66.5998 47.6 66.5998 50.4C66.5998 60.4 66.5998 70.4 66.5998 80.5C66.5998 83.2 64.7998 85 62.0998 85C51.9998 85 41.8998 85 31.7998 85C29.0998 85 27.2998 83.2 27.2998 80.6C27.2998 70.5 27.2998 60.5 27.2998 50.4C27.2998 48.1 28.8998 46.1 30.9998 46.1C34.7998 45.8 38.5998 45.9 42.5998 45.9Z" fill="#E4E4E4"/>
</svg>
