<svg width="120" height="120" viewBox="0 0 120 120" fill="none" xmlns="http://www.w3.org/2000/svg">
<path d="M107.174 101.83C109.43 98.6637 110.639 94.8707 110.632 90.9826V28.7363C110.632 26.2756 110.147 23.839 109.205 21.5657C108.263 19.2924 106.883 17.2268 105.143 15.487C103.403 13.7471 101.337 12.3671 99.0635 11.4256C96.79 10.4842 94.3533 9.99973 91.8926 10H29.6484C24.6794 10.0004 19.9141 11.9746 16.4006 15.4883C12.8871 19.0019 10.9132 23.7673 10.9131 28.7363V90.9826C10.9084 94.6044 11.9573 98.1494 13.932 101.186L60.7746 79.503L107.174 101.83Z" fill="#74C5BC"/>
<path d="M107.175 101.829L60.7771 79.5022L13.9346 101.185C15.6327 103.801 17.9575 105.952 20.6978 107.442C23.4381 108.932 26.5072 109.714 29.6264 109.717H91.9212C94.9088 109.716 97.8527 108.999 100.506 107.627C103.16 106.255 105.447 104.267 107.175 101.829V101.829Z" fill="black"/>
<path d="M61.1768 14.2388V23.3104C67.3424 23.3105 73.2554 25.7599 77.6151 30.1197C81.9748 34.4795 84.4241 40.3926 84.4241 46.5582H93.4998C93.4992 37.9861 90.0935 29.7653 84.0318 23.7042C77.97 17.6432 69.7489 14.2384 61.1768 14.2388V14.2388Z" fill="black"/>
<path d="M68.1551 47.1628C68.155 48.6128 67.7249 50.0303 66.9193 51.236C66.1137 52.4417 64.9687 53.3814 63.629 53.9364C62.2894 54.4914 60.8152 54.6367 59.393 54.354C57.9708 54.0712 56.6643 53.3731 55.6388 52.348C54.6132 51.3228 53.9147 50.0166 53.6315 48.5944C53.3482 47.1723 53.493 45.6981 54.0476 44.3583C54.6021 43.0184 55.5414 41.8731 56.7468 41.067C57.9522 40.261 59.3695 39.8304 60.8196 39.8298C62.7647 39.8297 64.6302 40.6021 66.0058 41.9773C67.3814 43.3524 68.1546 45.2177 68.1551 47.1628V47.1628Z" fill="black"/>
<path d="M61.2578 25.9148V34.9782C64.3509 35.0865 67.29 36.3552 69.4901 38.532C71.6902 40.7089 72.9902 43.6342 73.1314 46.726H81.9544C81.2897 34.9874 72.8024 26.2279 61.2578 25.9148Z" fill="black"/>
<path d="M60.8228 59.627C57.5883 59.6313 54.4818 58.3641 52.173 56.0988C49.8643 53.8335 48.5384 50.7516 48.4812 47.5176C48.424 44.2836 49.6401 41.1567 51.8673 38.8112C54.0945 36.4657 57.1543 35.0894 60.3869 34.9793V25.9148C49.3145 26.3569 39.9707 34.8554 39.6575 47.0499C39.2702 62.2745 60.6836 79.203 60.6836 79.203C60.6836 79.203 82.1124 62.5969 81.983 47.5984H73.1457C73.0679 50.8151 71.7355 53.8738 69.433 56.1214C67.1305 58.3689 64.0404 59.6271 60.8228 59.627V59.627Z" fill="white"/>
<path d="M61.5396 90.4345H60.1201L60.4696 83.8262H61.1921L61.5396 90.4345Z" fill="white"/>
<path d="M62.1665 109.714H59.4863L60.1464 97.2415H61.5131L62.1665 109.714Z" fill="white"/>
<g style="mix-blend-mode:soft-light" opacity="0.3">
<g style="mix-blend-mode:soft-light">
<g style="mix-blend-mode:soft-light">
<g style="mix-blend-mode:soft-light">
<path d="M91.8944 10.0681H29.6486C19.3039 10.0681 10 18.386 10 28.7348V67.743C28.5741 68.9562 43.3791 69.5912 60.1521 69.5912C76.9251 69.5912 95.4439 68.9562 110.304 67.743V28.7348C110.307 18.386 102.244 10.0681 91.8944 10.0681Z" fill="white"/>
</g>
</g>
</g>
</g>
</svg>
