<svg width="200" height="200" viewBox="0 0 200 200" fill="none" xmlns="http://www.w3.org/2000/svg">
<path d="M103.304 122.409L110.107 122.215C112.578 122.143 114.919 121.094 116.619 119.298C118.318 117.502 119.237 115.106 119.174 112.635L121.352 89.9274C121.198 84.8048 117.015 84.7552 111.889 84.9036L99.8525 85.2432C94.7242 85.389 90.5458 85.6667 90.6884 90.773L93.7386 113.338C93.809 115.808 94.855 118.148 96.6476 119.848C98.4402 121.549 100.834 122.469 103.304 122.409V122.409Z" fill="#A82A5E"/>
<path d="M107.538 145.332L107.542 145.332C111.913 145.209 115.556 148.654 115.678 153.025L115.987 164.069C116.11 168.441 112.665 172.084 108.294 172.206L108.291 172.206C103.919 172.328 100.276 168.884 100.154 164.513L99.8448 153.469C99.7225 149.097 103.167 145.454 107.538 145.332Z" fill="#333333"/>
<path d="M107.209 133.477L107.212 133.477C111.845 133.347 115.705 136.998 115.835 141.63L116.209 155.006C116.339 159.639 112.689 163.499 108.056 163.629L108.053 163.629C103.42 163.759 99.5596 160.108 99.4299 155.476L99.0554 142.1C98.9257 137.467 102.576 133.607 107.209 133.477Z" fill="#D62027"/>
<path d="M105.263 133.53L109.159 133.421L110.003 163.573L106.107 163.682L105.263 133.53Z" fill="white"/>
<path d="M91.2557 116.037L84.7269 103.733C83.957 102.28 83.5688 100.656 83.6017 99.013C83.6346 97.3696 84.0887 95.7598 84.9162 94.3394C85.7436 92.9191 86.9191 91.7332 88.3325 90.8939C89.7459 90.0547 91.3496 89.5902 92.9928 89.5436L118.951 88.8133C120.595 88.7651 122.223 89.1384 123.682 89.8955C125.142 90.6527 126.385 91.7696 127.293 93.1411C128.2 94.5125 128.745 96.0923 128.871 97.7321C128.997 99.3718 128.702 101.018 128.015 102.512L122.181 115.167C120.838 118.092 118.704 120.583 116.019 122.358C113.334 124.133 110.207 125.122 106.989 125.212C103.772 125.303 100.593 124.491 97.8128 122.87C95.0325 121.248 92.7614 118.882 91.2557 116.037Z" fill="#333333"/>
<path d="M97.9212 14.2657C97.8293 10.9813 100.417 8.24415 103.702 8.1522C106.986 8.06026 109.723 10.6483 109.815 13.9328L110.048 22.2282C110.139 25.5126 107.551 28.2497 104.267 28.3417C100.983 28.4336 98.2454 25.8456 98.1535 22.5611L97.9212 14.2657Z" fill="#333333"/>
<path d="M104.009 19.3155L104.013 19.3154C107.624 19.2143 110.634 22.06 110.735 25.6714L111.027 36.1002C111.128 39.7117 108.282 42.7213 104.671 42.8224L104.667 42.8225C101.056 42.9236 98.0463 40.0779 97.9452 36.4664L97.6532 26.0376C97.5521 22.4262 100.398 19.4166 104.009 19.3155Z" fill="#D62027"/>
<path d="M102.495 19.3566L105.531 19.2716L106.189 42.7786L103.153 42.8636L102.495 19.3566Z" fill="white"/>
<path d="M101.606 39.1567L108.001 38.9757C110.429 38.9064 112.843 39.3629 115.077 40.3137C117.312 41.2644 119.312 42.6879 120.946 44.4849L122.386 46.0683L122.6 53.5621L87.846 54.5357L87.6421 47.0346L88.9786 45.3821C90.511 43.4966 92.4314 41.9658 94.6107 40.8913C96.7899 39.8168 99.1768 39.2242 101.606 39.1567Z" fill="#4687DC"/>
<path d="M91.6001 56.6858L118.967 55.9197L120.74 119.238L93.3727 120.004L91.6001 56.6858Z" fill="#4687DC"/>
<path d="M122.938 53.9581C122.877 51.9903 122.039 50.1266 120.608 48.774C119.178 47.4215 117.27 46.6905 115.302 46.7395L94.744 47.3162C92.7753 47.3771 90.9115 48.2142 89.5583 49.6454C88.2051 51.0766 87.4715 52.9862 87.5209 54.9552V54.9552C87.527 55.1989 87.5831 55.438 87.6824 55.6606C87.7817 55.8832 87.922 56.0851 88.0993 56.2524C88.2766 56.4196 88.4859 56.5495 88.7139 56.6358C88.9419 56.722 89.1848 56.7627 89.4284 56.7546L121.136 55.868C121.628 55.8537 122.093 55.6449 122.431 55.2869C122.769 54.9289 122.953 54.4502 122.938 53.9581V53.9581Z" fill="#747474"/>
<path d="M111.883 53.6601C111.02 52.4108 111.333 50.6981 112.582 49.8347C113.831 48.9712 115.544 49.284 116.407 50.5332C117.271 51.7825 116.958 53.4951 115.709 54.3586C114.459 55.222 112.747 54.9093 111.883 53.6601Z" fill="#242424"/>
<path d="M93.9447 54.1624C93.0812 52.9131 93.3939 51.2005 94.6432 50.337C95.8924 49.4735 97.6051 49.7863 98.4686 51.0355C99.332 52.2848 99.0193 53.9975 97.77 54.8609C96.5208 55.7244 94.8081 55.4116 93.9447 54.1624Z" fill="#242424"/>
<path d="M106.661 52.9445L107.973 52.9078L108.009 54.219L106.698 54.2557L106.661 52.9445Z" fill="#242424"/>
<path d="M104.529 53.0036L105.841 52.9669L105.877 54.2782L104.566 54.3149L104.529 53.0036Z" fill="#242424"/>
<path d="M102.403 53.0626L103.714 53.0259L103.751 54.3371L102.44 54.3739L102.403 53.0626Z" fill="#242424"/>
<path d="M82.1252 54.7415L88.1527 48.3678C89.8878 46.5302 92.2801 45.4548 94.8062 45.3775L105.615 45.0745L116.424 44.7714C118.95 44.7023 121.4 45.6392 123.236 47.3759L129.609 53.3969" stroke="#333333" stroke-width="2.811" stroke-miterlimit="10"/>
<path d="M101.871 41.1616L107.371 41.0076C109.613 40.9448 111.481 42.711 111.543 44.9524C111.606 47.1938 109.84 49.0617 107.599 49.1244L102.098 49.2784C99.8567 49.3411 97.9889 47.575 97.9261 45.3336C97.8634 43.0922 99.6295 41.2243 101.871 41.1616Z" fill="white"/>
<path d="M73.9077 60.6425C72.2618 58.2613 72.858 54.9967 75.2392 53.3508C77.6204 51.7049 80.885 52.3011 82.5309 54.6823C84.1767 57.0635 83.5806 60.3281 81.1994 61.974C78.8182 63.6199 75.5536 63.0237 73.9077 60.6425Z" fill="#FFE0B4"/>
<path d="M128.065 59.1247C126.419 56.7435 127.015 53.4789 129.397 51.833C131.778 50.1872 135.042 50.7833 136.688 53.1645C138.334 55.5458 137.738 58.8104 135.357 60.4562C132.976 62.1021 129.711 61.506 128.065 59.1247Z" fill="#FFE0B4"/>
<path d="M106.366 94.9947C124.166 94.4895 138.267 80.7369 137.803 64.329L137.714 61.2406C137.713 60.5751 137.578 59.9163 137.318 59.3037C137.058 58.6911 136.677 58.1374 136.2 57.6739C135.722 57.2105 135.158 56.8467 134.538 56.6051C133.918 56.3636 133.256 56.2481 132.591 56.2665C131.926 56.2849 131.27 56.4371 130.664 56.7125C130.059 56.9879 129.513 57.3823 129.062 57.8715C128.61 58.3606 128.263 58.9345 128.037 59.5606C127.811 60.1866 127.712 60.8522 127.747 61.5167L127.838 64.6033C128.141 75.516 118.383 84.6772 106.086 85.0194C93.789 85.3616 83.5385 76.7678 83.2333 65.857L83.1531 62.7631C83.1019 61.4496 82.5362 60.208 81.5759 59.3104C80.6156 58.4129 79.3389 57.9316 78.025 57.9693C76.711 58.0069 75.4657 58.561 74.5583 59.512C73.6509 60.4631 73.1558 61.7332 73.1799 63.0474L73.2707 66.134C73.7197 82.5486 88.5651 95.4807 106.366 94.9947Z" fill="#333333"/>
<path d="M93.6749 75.3499C93.4759 68.2421 98.6427 62.331 105.215 62.147C111.788 61.963 117.277 67.5758 117.476 74.6836C117.675 81.7914 112.508 87.7026 105.936 87.8866C99.3633 88.0706 93.8739 82.4577 93.6749 75.3499Z" fill="#D62027"/>
<path d="M110.483 146.964C111.066 146.947 111.619 146.701 112.021 146.28L119.07 138.825C119.269 138.614 119.426 138.365 119.53 138.093C119.634 137.822 119.684 137.532 119.676 137.242C119.668 136.951 119.601 136.665 119.482 136.399C119.364 136.134 119.194 135.893 118.983 135.694C118.772 135.494 118.524 135.337 118.252 135.233C117.981 135.129 117.689 135.081 117.398 135.089C117.108 135.097 116.822 135.162 116.557 135.281C116.291 135.399 116.053 135.569 115.853 135.78L110.321 141.615L97.6965 129.669C97.2675 129.273 96.6997 129.062 96.1158 129.081C95.532 129.101 94.9802 129.349 94.5786 129.773C94.1769 130.197 93.9602 130.761 93.9726 131.345C93.985 131.929 94.226 132.486 94.6453 132.893L108.885 146.356C109.098 146.558 109.35 146.714 109.625 146.819C109.899 146.923 110.19 146.973 110.483 146.964V146.964Z" fill="#00878E"/>
<rect width="49.6285" height="49.6285" rx="3" transform="matrix(-1 -0.000978556 -0.000978556 1 130.937 109.573)" fill="#006490"/>
<rect width="41.6501" height="41.6501" rx="3" transform="matrix(-1 -0.000978556 -0.000978556 1 127.463 113.047)" fill="white"/>
<path fill-rule="evenodd" clip-rule="evenodd" d="M100.944 139.823L109.658 148.51C110.025 148.869 110.616 148.869 110.983 148.51L119.202 140.257C119.562 139.89 119.562 139.299 119.202 138.932L110.481 130.252L100.944 139.823ZM108.752 141.365C109.665 142.279 111.148 142.272 112.061 141.358C112.974 140.444 112.967 138.962 112.053 138.048C111.14 137.134 109.658 137.142 108.745 138.055C107.831 138.977 107.831 140.452 108.752 141.365Z" fill="#E61E29"/>
<path fill-rule="evenodd" clip-rule="evenodd" d="M102.524 131.72C103.438 132.633 104.921 132.626 105.835 131.712C106.748 130.799 106.741 129.316 105.827 128.402C104.913 127.489 103.431 127.496 102.517 128.41C101.603 129.331 101.611 130.806 102.524 131.72ZM95.6792 131.697C96.5929 132.611 98.0758 132.603 98.9895 131.69C99.9032 130.776 99.8957 129.293 98.982 128.38C98.0683 127.466 96.5854 127.474 95.6717 128.387C94.7581 129.308 94.7581 130.791 95.6792 131.697ZM91.9571 130.829L100.667 139.516L110.208 129.945L101.498 121.258C101.131 120.898 100.54 120.898 100.173 121.258L91.9496 129.511C91.5901 129.87 91.5901 130.469 91.9571 130.829Z" fill="#0074AD"/>
</svg>
