<?xml version="1.0" encoding="UTF-8"?>
<svg width="63px" height="71px" viewBox="0 0 63 71" version="1.1" xmlns="http://www.w3.org/2000/svg" xmlns:xlink="http://www.w3.org/1999/xlink">
    <title>Store Pin </title>
    <defs>
        <filter x="0.0%" y="0.0%" width="100.0%" height="100.0%" filterUnits="objectBoundingBox" id="filter-1">
            <feGaussianBlur stdDeviation="0" in="SourceGraphic"></feGaussianBlur>
        </filter>
        <circle id="path-2" cx="41" cy="21" r="18"></circle>
        <filter x="-19.4%" y="-13.9%" width="138.9%" height="138.9%" filterUnits="objectBoundingBox" id="filter-3">
            <feOffset dx="0" dy="2" in="SourceAlpha" result="shadowOffsetOuter1"></feOffset>
            <feGaussianBlur stdDeviation="2" in="shadowOffsetOuter1" result="shadowBlurOuter1"></feGaussianBlur>
            <feColorMatrix values="0 0 0 0 0   0 0 0 0 0.24701087   0 0 0 0 0.437415082  0 0 0 1 0" type="matrix" in="shadowBlurOuter1"></feColorMatrix>
        </filter>
        <polygon id="path-4" points="0 0.0736438356 27.7172544 0.0736438356 27.7172544 26.0820518 0 26.0820518"></polygon>
    </defs>
    <g id="11-track-order" stroke="none" stroke-width="1" fill="none" fill-rule="evenodd">
        <g id="2-tracorder-dispatched" transform="translate(-183.000000, -138.000000)">
            <g id="Group-7" transform="translate(0.000000, 64.000000)">
                <g id="map" transform="translate(152.000000, 74.000000)">
                    <g id="Store-Pin-" transform="translate(31.000000, 0.000000)">
                        <path d="M10.6858503,36.225887 C10.6858503,40.3503536 12.0551067,44.1488487 14.3464657,47.1574987 L27.6858503,64.5728038 L41.0254556,47.1574987 C43.316594,44.1488487 44.6858503,40.3503536 44.6858503,36.225887 C44.6858503,26.4918711 37.0595316,18.5728038 27.6858503,18.5728038 C18.3119485,18.5728038 10.6858503,26.4918711 10.6858503,36.225887 Z" id="Fill-1-Copy" fill="#0060AA" opacity="0.182872954" filter="url(#filter-1)" transform="translate(27.685850, 41.572804) scale(-1, 1) rotate(39.000000) translate(-27.685850, -41.572804) "></path>
                        <path d="M41,0 C29.4204742,0 20,9.64060376 20,21.4907101 C20,26.5117998 21.6914343,31.1360547 24.5219366,34.798759 L41,56 L57.4783359,34.798759 C60.3085657,31.1360547 62,26.5117998 62,21.4907101 C62,9.64060376 52.5792533,0 41,0" id="Fill-1" fill="#0060AA"></path>
                        <path d="M40,52 L42,52 L42,58 C42,58.5522847 41.5522847,59 41,59 C40.4477153,59 40,58.5522847 40,58 L40,52 L40,52 Z" id="Rectangle" fill="#0060AA" transform="translate(41.000000, 55.500000) scale(-1, 1) translate(-41.000000, -55.500000) "></path>
                        <g id="Oval">
                            <use fill="black" fill-opacity="1" filter="url(#filter-3)" xlink:href="#path-2"></use>
                            <use fill="#FFFFFF" fill-rule="evenodd" xlink:href="#path-2"></use>
                        </g>
                        <g id="Group-12" transform="translate(27.000000, 8.000000)">
                            <g id="Group-3" transform="translate(0.000000, 0.309879)">
                                <mask id="mask-5" fill="white">
                                    <use xlink:href="#path-4"></use>
                                </mask>
                                <g id="Clip-2"></g>
                                <path d="M27.3422301,8.65437808 L20.7426685,0.668624658 C20.4638192,0.331090411 20.0722027,0.122432877 19.6372438,0.0810082192 C19.2015178,0.0395835616 18.7746137,0.170761644 18.4386137,0.449227397 L11.7412438,5.98363836 L0.594175342,15.1960219 C-0.102372603,15.7702137 -0.200947945,16.8054466 0.374778082,17.5000767 L6.97472329,25.4885151 C7.25318904,25.8256658 7.64672329,26.0335562 8.08244932,26.0745973 C8.51740822,26.1156384 8.94239452,25.9863781 9.28069589,25.7075288 L19.271326,17.4494466 L27.1236,10.9595836 C27.8197644,10.3842411 27.9179562,9.35054247 27.3422301,8.65437808" id="Fill-1" fill="#FFFFFF" mask="url(#mask-5)"></path>
                            </g>
                            <path d="M20.1642959,10.932274 C19.7124603,11.3062466 19.1497753,11.4600548 18.6120219,11.4086575 C18.0704329,11.3561096 17.5495562,11.100274 17.1755836,10.6484384 C16.8035288,10.1985205 16.6474192,9.63545205 16.6980493,9.09578082 C16.7505973,8.55534247 17.0095014,8.03293151 17.4594192,7.66126027 C17.9120219,7.28843836 18.4720219,7.13232877 19.013611,7.18372603 C19.5513644,7.23473973 20.0753096,7.49172603 20.4481315,7.94547945 C20.8205699,8.39539726 20.977063,8.95693151 20.9252822,9.49775342 C20.8746521,10.0374247 20.6149808,10.5594521 20.1642959,10.932274 M26.7784329,9.43446575 L20.1784877,1.44756164 C19.8612822,1.06284932 19.2901589,1.00838356 18.9054466,1.32635616 L10.2710904,8.46213699 L18.0221041,17.8425205 L26.657611,10.7067397 C27.0411726,10.3887671 27.0952548,9.81917808 26.7784329,9.43446575" id="Fill-4" fill="#DC052B"></path>
                            <path d="M10.6658904,16.1751781 C11.1165753,15.7996712 11.6769589,15.645863 12.2170137,15.6972603 C12.7578356,15.7490411 13.2787123,16.0056438 13.6507671,16.4590137 C14.026274,16.9089315 14.1808493,17.4696986 14.1294521,18.0116712 C14.0780548,18.5513425 13.8206849,19.0722192 13.3673151,19.4446575 C12.9166301,19.8155616 12.3562466,19.9716712 11.8154247,19.9214247 C11.2753699,19.8700274 10.7541096,19.6111233 10.3820548,19.1608219 C10.0080822,18.7082192 9.85235616,18.1482192 9.90336986,17.6096986 C9.95476712,17.0688767 10.2132877,16.5468493 10.6658904,16.1751781 L10.6658904,16.1751781 Z M7.17854795,18.7715068 C6.72364384,19.1416438 6.16364384,19.2973699 5.62435616,19.2459726 C5.08238356,19.1945753 4.56227397,18.9372055 4.18868493,18.4869041 C3.81509589,18.0358356 3.66090411,17.4746849 3.71230137,16.9357808 C3.76369863,16.3953425 4.02068493,15.8729315 4.47290411,15.4989589 C4.92473973,15.1265205 5.4839726,14.9719452 6.02594521,15.0225753 C6.56484932,15.0747397 7.08841096,15.3321096 7.46238356,15.7835616 C7.83405479,16.2353973 7.98786301,16.7969315 7.93646575,17.3362192 C7.88506849,17.876274 7.62846575,18.3998356 7.17854795,18.7715068 L7.17854795,18.7715068 Z M1.06189041,16.0712329 C0.676027397,16.3888219 0.621561644,16.958411 0.941068493,17.3435068 L7.54024658,25.3311781 C7.69942466,25.5244932 7.92073973,25.6334247 8.15164384,25.6556712 C8.38139726,25.6771507 8.62112329,25.6123288 8.81290411,25.4523836 L17.4426575,18.3189041 L9.69279452,8.93852055 L1.06189041,16.0712329 Z" id="Fill-6" fill="#0074AA"></path>
                            <polygon id="Fill-8" fill="#FFFFFF" points="10.9902685 25.9683507 11.0278575 25.5725151 10.8855562 25.5590904 10.8939945 25.4678027 11.2833096 25.5050082 11.2744877 25.5959123 11.1318027 25.5821041 11.0942137 25.9779397"></polygon>
                            <polygon id="Fill-10" fill="#FFFFFF" points="11.7229479 26.0380055 11.7563178 25.6878137 11.5871671 26.0249644 11.5419068 26.0207452 11.4383452 25.6575123 11.4053589 26.0077041 11.3010301 25.9981151 11.3474411 25.5109918 11.492811 25.5248 11.5825644 25.8408548 11.7287014 25.5474301 11.8740712 25.5612384 11.8276603 26.0475945"></polygon>
                        </g>
                    </g>
                </g>
            </g>
        </g>
    </g>
</svg>